HIERARCHY
ROOT Hips
{
	OFFSET 0.000000 100.481300 0.000000
	CHANNELS 6 Xposition Yposition Zposition Xrotation Yrotation Zrotation
	JOINT Spine
	{
		OFFSET -0.279200 12.230698 -2.892100
		CHANNELS 3 Xrotation Yrotation Zrotation
		JOINT Spine1
		{
			OFFSET -0.325700 14.269203 -3.374200
			CHANNELS 3 Xrotation Yrotation Zrotation
			JOINT Spine2
			{
				OFFSET -0.372300 16.307602 -0.352600
				CHANNELS 3 Xrotation Yrotation Zrotation
				JOINT Neck
				{
					OFFSET -0.418800 17.814194 8.416900
					CHANNELS 3 Xrotation Yrotation Zrotation
					JOINT Head
					{
						OFFSET 0.000000 7.031097 3.806800
						CHANNELS 3 Xrotation Yrotation Zrotation
						JOINT HeadTop_End
						{
							OFFSET 0.000000 24.646606 12.978600
							CHANNELS 3 Xrotation Yrotation Zrotation
							End Site
							{
								OFFSET 0.000000 27.854965 0.000000
							}
						}
					}
				}
				JOINT LeftShoulder
				{
					OFFSET 16.952999 14.495407 -7.737500
					CHANNELS 3 Xrotation Yrotation Zrotation
					JOINT LeftArm
					{
						OFFSET 9.308998 -2.777710 0.208600
						CHANNELS 3 Xrotation Yrotation Zrotation
						JOINT LeftForeArm
						{
							OFFSET 29.972298 0.000000 0.000000
							CHANNELS 3 Xrotation Yrotation Zrotation
							JOINT LeftHand
							{
								OFFSET 26.026505 0.000000 0.000000
								CHANNELS 3 Xrotation Yrotation Zrotation
								JOINT LeftHandThumb1
								{
									OFFSET 12.240501 -7.147949 9.207150
									CHANNELS 3 Xrotation Yrotation Zrotation
									JOINT LeftHandThumb2
									{
										OFFSET 4.138618 -2.389435 2.389433
										CHANNELS 3 Xrotation Yrotation Zrotation
										JOINT LeftHandThumb3
										{
											OFFSET 2.726913 -1.574387 1.574386
											CHANNELS 3 Xrotation Yrotation Zrotation
											JOINT LeftHandThumb4
											{
												OFFSET 3.941010 -2.275345 2.275342
												CHANNELS 3 Xrotation Yrotation Zrotation
												End Site
												{
													OFFSET -0.005798 5.087799 0.009903
												}
											}
										}
									}
								}
								JOINT LeftHandIndex1
								{
									OFFSET 24.424698 -1.985611 5.953459
									CHANNELS 3 Xrotation Yrotation Zrotation
									JOINT LeftHandIndex2
									{
										OFFSET 6.426697 0.000000 0.000000
										CHANNELS 3 Xrotation Yrotation Zrotation
										JOINT LeftHandIndex3
										{
											OFFSET 5.337898 0.000000 0.000000
											CHANNELS 3 Xrotation Yrotation Zrotation
											JOINT LeftHandIndex4
											{
												OFFSET 4.409401 0.000000 0.000000
												CHANNELS 3 Xrotation Yrotation Zrotation
												End Site
												{
													OFFSET 0.000000 4.409363 0.014373
												}
											}
										}
									}
								}
								JOINT LeftHandMiddle1
								{
									OFFSET 23.810104 0.000000 0.000000
									CHANNELS 3 Xrotation Yrotation Zrotation
									JOINT LeftHandMiddle2
									{
										OFFSET 7.176498 0.000000 0.000000
										CHANNELS 3 Xrotation Yrotation Zrotation
										JOINT LeftHandMiddle3
										{
											OFFSET 6.774902 0.000000 0.000000
											CHANNELS 3 Xrotation Yrotation Zrotation
											JOINT LeftHandMiddle4
											{
												OFFSET 5.403328 0.000000 0.000000
												CHANNELS 3 Xrotation Yrotation Zrotation
												End Site
												{
													OFFSET -0.027702 5.403244 0.017414
												}
											}
										}
									}
								}
								JOINT LeftHandRing1
								{
									OFFSET 22.908401 -0.839279 -6.020567
									CHANNELS 3 Xrotation Yrotation Zrotation
									JOINT LeftHandRing2
									{
										OFFSET 6.337502 0.000000 0.000000
										CHANNELS 3 Xrotation Yrotation Zrotation
										JOINT LeftHandRing3
										{
											OFFSET 5.779297 0.000000 0.000000
											CHANNELS 3 Xrotation Yrotation Zrotation
											JOINT LeftHandRing4
											{
												OFFSET 4.965698 0.000000 0.000000
												CHANNELS 3 Xrotation Yrotation Zrotation
												End Site
												{
													OFFSET 0.000000 4.965668 0.016186
												}
											}
										}
									}
								}
								JOINT LeftHandPinky1
								{
									OFFSET 20.037003 -1.530319 -10.950146
									CHANNELS 3 Xrotation Yrotation Zrotation
									JOINT LeftHandPinky2
									{
										OFFSET 5.254700 0.000000 0.000000
										CHANNELS 3 Xrotation Yrotation Zrotation
										JOINT LeftHandPinky3
										{
											OFFSET 4.810204 0.000000 0.000000
											CHANNELS 3 Xrotation Yrotation Zrotation
											JOINT LeftHandPinky4
											{
												OFFSET 3.647202 0.000000 0.000000
												CHANNELS 3 Xrotation Yrotation Zrotation
												End Site
												{
													OFFSET 0.000000 3.647186 0.011889
												}
											}
										}
									}
								}
							}
						}
					}
				}
				JOINT RightShoulder
				{
					OFFSET -15.141001 14.495407 -7.737500
					CHANNELS 3 Xrotation Yrotation Zrotation
					JOINT RightArm
					{
						OFFSET -9.308998 -2.777710 0.208500
						CHANNELS 3 Xrotation Yrotation Zrotation
						JOINT RightForeArm
						{
							OFFSET -29.972300 0.000000 0.000000
							CHANNELS 3 Xrotation Yrotation Zrotation
							JOINT RightHand
							{
								OFFSET -26.026505 0.000000 0.000000
								CHANNELS 3 Xrotation Yrotation Zrotation
								JOINT RightHandThumb1
								{
									OFFSET -12.240601 -7.148026 9.207092
									CHANNELS 3 Xrotation Yrotation Zrotation
									JOINT RightHandThumb2
									{
										OFFSET -4.138618 -2.389435 2.389433
										CHANNELS 3 Xrotation Yrotation Zrotation
										JOINT RightHandThumb3
										{
											OFFSET -2.726974 -1.574417 1.574421
											CHANNELS 3 Xrotation Yrotation Zrotation
											JOINT RightHandThumb4
											{
												OFFSET -3.941010 -2.275345 2.275343
												CHANNELS 3 Xrotation Yrotation Zrotation
												End Site
												{
													OFFSET 0.005814 5.087799 0.009927
												}
											}
										}
									}
								}
								JOINT RightHandIndex1
								{
									OFFSET -24.424698 -1.985657 5.953444
									CHANNELS 3 Xrotation Yrotation Zrotation
									JOINT RightHandIndex2
									{
										OFFSET -6.426697 0.000000 0.000000
										CHANNELS 3 Xrotation Yrotation Zrotation
										JOINT RightHandIndex3
										{
											OFFSET -5.337898 0.000000 0.000000
											CHANNELS 3 Xrotation Yrotation Zrotation
											JOINT RightHandIndex4
											{
												OFFSET -4.409401 0.000000 0.000000
												CHANNELS 3 Xrotation Yrotation Zrotation
												End Site
												{
													OFFSET 0.000000 4.409363 0.014408
												}
											}
										}
									}
								}
								JOINT RightHandMiddle1
								{
									OFFSET -23.810097 0.000000 0.000000
									CHANNELS 3 Xrotation Yrotation Zrotation
									JOINT RightHandMiddle2
									{
										OFFSET -7.176498 0.000000 0.000000
										CHANNELS 3 Xrotation Yrotation Zrotation
										JOINT RightHandMiddle3
										{
											OFFSET -6.774902 0.000000 0.000000
											CHANNELS 3 Xrotation Yrotation Zrotation
											JOINT RightHandMiddle4
											{
												OFFSET -5.403328 0.000000 0.000000
												CHANNELS 3 Xrotation Yrotation Zrotation
												End Site
												{
													OFFSET 0.027702 5.403244 0.017457
												}
											}
										}
									}
								}
								JOINT RightHandRing1
								{
									OFFSET -22.908302 -0.839325 -6.020576
									CHANNELS 3 Xrotation Yrotation Zrotation
									JOINT RightHandRing2
									{
										OFFSET -6.337502 0.000000 0.000000
										CHANNELS 3 Xrotation Yrotation Zrotation
										JOINT RightHandRing3
										{
											OFFSET -5.779297 0.000000 0.000000
											CHANNELS 3 Xrotation Yrotation Zrotation
											JOINT RightHandRing4
											{
												OFFSET -4.965698 0.000000 0.000000
												CHANNELS 3 Xrotation Yrotation Zrotation
												End Site
												{
													OFFSET 0.000000 4.965668 0.016226
												}
											}
										}
									}
								}
								JOINT RightHandPinky1
								{
									OFFSET -20.037003 -1.530334 -10.950259
									CHANNELS 3 Xrotation Yrotation Zrotation
									JOINT RightHandPinky2
									{
										OFFSET -5.254700 0.000000 0.000000
										CHANNELS 3 Xrotation Yrotation Zrotation
										JOINT RightHandPinky3
										{
											OFFSET -4.810204 0.000000 0.000000
											CHANNELS 3 Xrotation Yrotation Zrotation
											JOINT RightHandPinky4
											{
												OFFSET -3.647202 0.000000 0.000000
												CHANNELS 3 Xrotation Yrotation Zrotation
												End Site
												{
													OFFSET 0.000000 3.647186 0.011917
												}
											}
										}
									}
								}
							}
						}
					}
				}
			}
		}
	}
	JOINT LeftUpLeg
	{
		OFFSET 15.427100 -6.655098 0.678600
		CHANNELS 3 Xrotation Yrotation Zrotation
		JOINT LeftLeg
		{
			OFFSET 4.081073 -39.591068 13.024000
			CHANNELS 3 Xrotation Yrotation Zrotation
			JOINT LeftFoot
			{
				OFFSET -4.081074 -37.707932 -15.979700
				CHANNELS 3 Xrotation Yrotation Zrotation
				JOINT LeftToeBase
				{
					OFFSET 5.346399 -15.068900 20.645000
					CHANNELS 3 Xrotation Yrotation Zrotation
					JOINT LeftToe_End
					{
						OFFSET 2.754700 0.931300 11.300900
						CHANNELS 3 Xrotation Yrotation Zrotation
						End Site
						{
							OFFSET 0.000000 11.669021 0.000000
						}
					}
				}
			}
		}
	}
	JOINT RightUpLeg
	{
		OFFSET -15.569500 -6.655098 0.678600
		CHANNELS 3 Xrotation Yrotation Zrotation
		JOINT RightLeg
		{
			OFFSET -4.081825 -39.591045 13.023800
			CHANNELS 3 Xrotation Yrotation Zrotation
			JOINT RightFoot
			{
				OFFSET 4.081824 -37.707954 -15.979600
				CHANNELS 3 Xrotation Yrotation Zrotation
				JOINT RightToeBase
				{
					OFFSET -5.346400 -15.068900 20.645000
					CHANNELS 3 Xrotation Yrotation Zrotation
					JOINT RightToe_End
					{
						OFFSET -2.754700 0.931300 11.300900
						CHANNELS 3 Xrotation Yrotation Zrotation
						End Site
						{
							OFFSET 0.000000 11.669021 0.000000
						}
					}
				}
			}
		}
	}
}
MOTION
Frames: 4
Frame Time: 0.033333
44.586079 74.418190 -24.819008 6.451475 -61.327613 -120.799914 17.648498 24.597220 -2.775734 7.841047 9.756290 -4.662175 7.960118 9.603085 -4.866702 0.474649 -4.115193 6.281020 13.075972 -19.287508 24.109333 -0.000002 0.000000 0.000002 0.907284 -8.561719 -0.000084 -31.635428 49.185326 -82.074811 0.000059 -104.289619 0.000064 -46.156308 -19.759526 76.871430 -23.329291 -10.861740 9.747899 4.135143 9.484795 1.779854 -7.692165 -2.715601 12.525670 0.000004 0.000001 -0.000002 -2.334502 -15.124100 -8.712338 0.000101 0.034692 -0.338555 0.001954 -0.151407 1.477673 0.000000 -0.000002 -0.000000 -0.637332 -4.563461 -5.950894 0.000002 0.005227 -0.051008 0.002589 -0.174363 1.701721 0.000000 0.000001 -0.000000 0.597355 7.882837 -5.575935 -0.000001 0.001632 -0.015758 0.005629 -0.257041 2.508954 0.000000 0.000000 0.000000 1.647634 21.118226 -4.023957 0.000057 0.026013 -0.253967 0.005647 -0.257445 2.513095 -0.000000 0.000000 -0.000000 -0.965358 16.604320 26.612222 -68.720596 30.970888 84.871302 -0.000010 60.242480 0.000001 -8.604001 20.513681 -44.027519 -4.957111 22.491810 -22.374872 6.358373 -14.447582 -2.112217 -7.845694 8.561195 -11.387881 -0.000000 0.000004 -0.000000 6.929591 22.348674 -15.505580 -0.000001 -0.000003 -0.000002 -0.000000 -0.000002 0.000004 -0.000001 -0.000003 -0.000000 3.558502 9.846331 -16.725491 0.000001 0.000001 -0.000000 -0.000000 0.000007 -0.000025 -0.000000 -0.000003 -0.000000 0.303331 -0.755452 -17.693371 -0.000000 -0.000003 0.000007 -0.000001 0.000007 -0.000039 -0.000000 -0.000000 0.000000 -3.749115 -13.123689 -18.830960 -0.000000 0.000001 0.000001 -0.000000 -0.000002 0.000011 -0.000000 0.000000 0.000001 -93.462949 55.683882 9.058855 97.542191 36.765563 16.255946 40.019663 -9.313849 -17.782869 -1.748398 0.000002 -0.000006 0.000002 0.000001 -0.000000 45.263903 -5.360915 23.093088 84.367337 -16.211463 -0.520111 2.859131 2.371430 15.983363 -0.994210 -0.000014 0.000014 -0.000001 -0.000003 0.000002 
43.673790 74.427994 -25.600029 7.185847 -62.003474 -118.962675 17.187819 24.398392 -2.963886 7.679813 9.635102 -4.763733 7.806495 9.481618 -4.958179 0.524950 -4.137601 6.290754 13.403317 -19.368303 23.976635 -0.000000 0.000001 -0.000001 0.963998 -8.506746 -0.122628 -31.989748 48.698620 -81.838282 0.000072 -103.931676 0.000059 -45.673642 -19.273143 77.146276 -23.333434 -11.023100 9.663095 4.211568 9.680111 1.744088 -7.686333 -2.682724 12.534569 0.000001 0.000001 -0.000001 -2.293611 -15.069597 -8.602287 0.000082 0.031293 -0.305390 0.001998 -0.153126 1.494436 0.000001 -0.000001 -0.000000 -0.625907 -4.521788 -5.891974 0.000012 0.011426 -0.111485 0.002357 -0.166365 1.623621 0.000000 0.000001 -0.000001 0.586468 7.866463 -5.470008 0.000002 0.004970 -0.048610 0.005377 -0.251220 2.452286 0.000000 -0.000000 -0.000000 1.607281 21.073282 -3.909748 0.000057 0.026034 -0.253965 0.005556 -0.255380 2.492964 -0.000000 0.000000 -0.000000 -0.928939 16.155100 26.431136 -68.059072 30.236684 84.965627 -0.000001 63.281108 -0.000022 -6.979994 22.816759 -46.838497 -5.117135 22.440281 -22.201149 6.425663 -14.604727 -2.099929 -7.760772 8.234683 -11.453608 -0.000003 0.000001 0.000001 6.611577 22.120497 -14.908336 -0.000000 0.000001 -0.000000 -0.000002 0.002176 -0.026625 -0.000000 0.000000 0.000000 3.407246 9.671635 -16.242776 0.000002 -0.001898 0.023168 0.000002 0.001365 -0.016641 0.000000 0.000003 0.000001 0.255690 -0.905336 -17.334230 0.000000 -0.004325 0.053045 0.000001 -0.003927 0.048291 -0.000000 0.000003 0.000001 -3.720063 -13.270605 -18.512838 0.000003 -0.005632 0.069125 0.000001 -0.004050 0.049728 -0.000000 0.000000 0.000000 -94.874025 55.067526 8.763315 98.019492 35.929691 15.996853 39.366010 -8.959570 -17.270299 -1.770744 -0.000014 -0.000003 -0.000001 0.000001 -0.000002 44.456591 -5.516541 22.912221 83.167942 -15.530254 -0.785755 2.727391 2.522937 16.006094 -1.285391 -0.000004 -0.000011 -0.000000 0.000001 0.000001 
41.962654 73.948181 -26.776993 7.178028 -62.317157 -117.777118 17.027064 24.357969 -3.371786 7.380785 9.594524 -4.623744 7.510330 9.434631 -4.815612 0.615438 -4.201940 6.396184 13.536989 -19.403145 23.589740 0.000000 -0.000000 0.000001 1.115267 -8.168174 -0.744891 -31.910521 48.410018 -82.158734 -0.000125 -103.523880 -0.000124 -45.001716 -18.885734 77.200576 -23.401138 -11.490015 9.489569 4.338111 10.017851 1.679131 -7.675592 -2.622235 12.550909 0.000000 -0.000000 0.000001 -2.207580 -14.993790 -8.355050 0.000099 0.034280 -0.334504 0.001833 -0.146662 1.431257 0.000000 0.000001 0.000001 -0.600080 -4.486436 -5.716683 0.000069 0.028437 -0.277493 0.001801 -0.145428 1.419325 0.000000 -0.000003 -0.000000 0.568170 7.821174 -5.311712 0.000015 0.013253 -0.129318 0.004800 -0.237358 2.316963 0.000000 -0.000000 0.000000 1.574234 21.015075 -3.822363 0.000063 0.027421 -0.267458 0.005237 -0.247928 2.420060 0.000000 0.000000 0.000000 -0.832571 15.036308 26.080598 -66.850654 29.849846 85.302519 -0.000006 69.426523 -0.000005 -1.138428 20.533613 -51.534037 -5.418699 22.254177 -21.886576 6.577947 -14.957020 -2.062948 -7.687211 7.772357 -11.576021 -0.000004 0.000003 0.000001 5.727962 21.590831 -13.115344 0.000000 0.000001 0.000001 0.000002 0.001106 -0.013590 0.000000 0.000000 0.000000 2.991146 9.276386 -14.703348 0.000029 -0.015899 0.194886 0.000027 -0.015292 0.187816 -0.000001 0.000003 0.000001 0.160320 -1.234600 -16.007841 0.000022 -0.014515 0.178097 0.000022 -0.013236 0.162533 0.000000 -0.000001 -0.000000 -3.565148 -13.680077 -17.345935 0.000034 -0.017978 0.220725 0.000017 -0.012765 0.156723 0.000000 0.000001 0.000000 -97.976885 50.585306 9.139620 98.540799 32.370391 13.782563 37.147715 -7.546936 -15.056693 -2.041872 0.000023 -0.000003 -0.000000 -0.000001 0.000000 43.801074 -5.350363 21.056824 81.306469 -12.959461 -0.821805 3.099059 2.621145 17.104863 -1.657166 -0.000006 -0.000005 0.000001 -0.000002 -0.000000 
39.848351 72.772240 -28.041336 8.008078 -62.280370 -115.823274 17.320079 23.817978 -3.983003 6.977758 9.571116 -4.247711 7.107723 9.395272 -4.454311 0.602409 -4.326217 6.678206 13.242339 -19.384791 23.155813 -0.000001 -0.000000 -0.000000 1.344641 -7.631824 -1.823120 -31.316298 47.870238 -82.726746 0.000055 -103.487304 0.000088 -44.310781 -18.645832 77.344147 -23.538049 -12.284742 9.216206 4.530631 10.538463 1.577367 -7.658843 -2.527738 12.572117 0.000001 0.000003 0.000000 -2.086452 -14.889992 -8.001748 0.000148 0.041869 -0.408717 0.001519 -0.133571 1.303500 -0.000000 0.000001 0.000000 -0.560634 -4.462694 -5.425517 0.000279 0.057311 -0.559120 0.001038 -0.110340 1.076678 0.000000 -0.000001 -0.000000 0.547715 7.750317 -5.155214 0.000056 0.025739 -0.251174 0.003969 -0.215850 2.106722 -0.000000 0.000002 0.000000 1.555557 20.944398 -3.784207 0.000076 0.029907 -0.291791 0.004729 -0.235624 2.300015 0.000000 0.000000 0.000000 -0.701661 13.288466 25.562502 -64.495994 30.799102 85.913050 0.000081 76.666162 -0.000094 8.370787 14.582855 -55.789907 -5.869156 21.930250 -21.406544 6.820654 -15.518292 -2.003282 -7.588042 7.087242 -11.762019 -0.000001 -0.000001 0.000002 4.356693 20.708702 -10.170953 -0.000002 -0.001781 0.021888 0.000006 -0.005932 0.072755 -0.000000 0.000001 0.000000 2.358151 8.642010 -12.157114 0.000235 -0.046911 0.576108 0.000261 -0.049339 0.605616 0.000000 0.000001 0.000000 0.037222 -1.760139 -13.850701 0.000118 -0.033396 0.409994 0.000103 -0.030774 0.377875 -0.000000 0.000001 0.000001 -3.281960 -14.337020 -15.439484 0.000152 -0.037783 0.463756 0.000080 -0.026879 0.329889 0.000001 0.000000 0.000000 -98.835125 40.817794 10.108741 98.481690 27.615862 7.950003 29.964351 -5.209517 -9.995736 -3.534666 -0.000018 0.000013 -0.000001 -0.000000 0.000000 42.671737 -5.501369 17.251176 79.078045 -8.916716 -0.457766 3.494218 2.960069 17.902529 -1.852235 -0.000002 -0.000018 -0.000000 0.000001 0.000003 
